<svg xmlns="http://www.w3.org/2000/svg" width="21.755" height="24.863" viewBox="0 0 21.755 24.863"><path d="M10.878,24.863a3.107,3.107,0,0,0,3.106-3.108H7.771A3.107,3.107,0,0,0,10.878,24.863Zm10.46-7.27c-.938-1.008-2.694-2.525-2.694-7.493a7.669,7.669,0,0,0-6.213-7.535V1.554a1.553,1.553,0,1,0-3.106,0V2.566A7.669,7.669,0,0,0,3.112,10.1c0,4.968-1.755,6.484-2.694,7.493A1.517,1.517,0,0,0,0,18.648,1.555,1.555,0,0,0,1.559,20.2H20.2a1.555,1.555,0,0,0,1.559-1.554,1.516,1.516,0,0,0-.418-1.054Z" transform="translate(0)" fill="#fff"/></svg>