<svg xmlns="http://www.w3.org/2000/svg" width="31.811" height="40.679" viewBox="0 0 31.811 40.679"><path d="M22.59,14h9.522a.511.511,0,0,0,.523-.508h0a2.977,2.977,0,0,0-1.12-2.329L23.531,4.7a3.421,3.421,0,0,0-2.156-.753h0A.762.762,0,0,0,20.6,4.7V12.07A1.96,1.96,0,0,0,22.59,14Z" transform="translate(-0.824 -3.934)" fill="#6d6e71"/><path d="M24.369,12.073V3.938H10.661A3.312,3.312,0,0,0,7.313,7.192v34.17a3.312,3.312,0,0,0,3.349,3.254H35.775a3.312,3.312,0,0,0,3.348-3.254V16.65H29.078A4.651,4.651,0,0,1,24.369,12.073Z" transform="translate(-7.313 -3.938)" fill="#6d6e71"/></svg>