<svg xmlns="http://www.w3.org/2000/svg" width="38.717" height="34.941" viewBox="0 0 38.717 34.941"><path d="M32.266,12.651l-7.534,11.2a3.921,3.921,0,0,1,.933,2.544,4.149,4.149,0,0,1-8.295,0,4.3,4.3,0,0,1,.069-.747l-4.977-2.813a4.185,4.185,0,0,1-2.877,1.125,4.264,4.264,0,0,1-2.039-.521l-5.3,4.82v4.8a3.648,3.648,0,0,0,3.689,3.586H37.277a3.648,3.648,0,0,0,3.689-3.586V15.213L35.9,11.946a4.2,4.2,0,0,1-2.54.848A4.266,4.266,0,0,1,32.266,12.651Z" transform="translate(-2.25 -1.71)" fill="#6d6e71"/><path d="M9.594,17.566A4.091,4.091,0,0,1,13.741,21.6a5.1,5.1,0,0,1-.035.521L18.9,24.939a4.184,4.184,0,0,1,2.627-.907,4.461,4.461,0,0,1,.9.092l7.552-11.37a3.913,3.913,0,0,1-.769-2.334,4.149,4.149,0,0,1,8.295,0,4.263,4.263,0,0,1-.112.949l3.568,2.318V6.961a3.648,3.648,0,0,0-3.689-3.586H5.939A3.648,3.648,0,0,0,2.25,6.961V26.215L5.706,23a3.97,3.97,0,0,1-.259-1.4A4.091,4.091,0,0,1,9.594,17.566Z" transform="translate(-2.25 -3.375)" fill="#6d6e71"/></svg>