<svg xmlns="http://www.w3.org/2000/svg" width="30" height="19.091" viewBox="0 0 30 19.091"><path d="M22.636,18.409A16.345,16.345,0,0,0,16.5,19.773a16.086,16.086,0,0,0-6.136-1.364C7.4,18.409,1.5,19.882,1.5,22.841v3.75h30v-3.75C31.5,19.882,25.6,18.409,22.636,18.409Zm-5.455,6.136H3.545v-1.7c0-.736,3.491-2.386,6.818-2.386s6.818,1.65,6.818,2.386Zm12.273,0H19.227v-1.7a2.481,2.481,0,0,0-.709-1.664,13.156,13.156,0,0,1,4.118-.723c3.327,0,6.818,1.65,6.818,2.386Zm-19.091-7.5a4.773,4.773,0,1,0-4.773-4.773A4.778,4.778,0,0,0,10.364,17.045Zm0-7.5a2.727,2.727,0,1,1-2.727,2.727A2.735,2.735,0,0,1,10.364,9.545Zm12.273,7.5a4.773,4.773,0,1,0-4.773-4.773A4.778,4.778,0,0,0,22.636,17.045Zm0-7.5a2.727,2.727,0,1,1-2.727,2.727A2.735,2.735,0,0,1,22.636,9.545Z" transform="translate(-1.5 -7.5)" fill="#fff"/></svg>