<svg xmlns="http://www.w3.org/2000/svg" width="25.783" height="17.404" viewBox="0 0 25.783 17.404"><path d="M.072,19.931V5.61q0-.025.075-.472l8.429,7.21-8.4,8.081a2.107,2.107,0,0,1-.1-.5ZM1.191,4.143a1.071,1.071,0,0,1,.423-.075h22.7a1.408,1.408,0,0,1,.448.075l-8.454,7.235-1.119.9-2.213,1.815-2.213-1.815-1.119-.9ZM1.216,21.4l8.478-8.13,3.282,2.66,3.282-2.66,8.478,8.13a1.194,1.194,0,0,1-.423.075H1.614a1.126,1.126,0,0,1-.4-.075Zm16.161-9.05,8.4-7.21a1.484,1.484,0,0,1,.075.472V19.931a1.906,1.906,0,0,1-.075.5Z" transform="translate(-0.072 -4.068)" fill="#fff"/></svg>